<svg width="158" height="139" viewBox="0 0 158 139" fill="none" xmlns="http://www.w3.org/2000/svg">
<rect width="158" height="139" fill="#F01717"/>
<path d="M63.5691 58.68H42.5291L37.4891 73H28.6891L48.6891 17H57.4091L77.4891 73H68.6091L63.5691 58.68ZM60.8491 50.92L53.0891 28.92L45.3291 50.92H60.8491ZM76.2184 17H95.2584C108.165 17 114.618 23.0533 114.618 35.16C114.618 41.3467 112.938 45.96 109.578 49C106.272 51.9867 101.552 53.48 95.4184 53.48H85.1784V73H76.2184V17ZM94.2184 45.96C98.0584 45.96 100.938 45.08 102.858 43.32C104.778 41.56 105.738 38.8667 105.738 35.24C105.738 31.56 104.805 28.8667 102.938 27.16C101.072 25.4 98.1384 24.52 94.1384 24.52H85.1784V45.96H94.2184ZM114.781 17H123.501V73H114.781V17Z" fill="#F8FAFB"/>
<path d="M50.3664 109.05H37.2164L34.0664 118H28.5664L41.0664 83H46.5164L59.0664 118H53.5164L50.3664 109.05ZM48.6664 104.2L43.8164 90.45L38.9664 104.2H48.6664ZM68.2816 118.5C66.115 118.5 64.4983 117.917 63.4316 116.75C62.3983 115.583 61.8816 114.1 61.8816 112.3V80.5H67.1316V109.75C67.1316 111.15 67.215 112.167 67.3816 112.8C67.5483 113.4 67.865 113.8 68.3316 114C68.7983 114.167 69.5816 114.25 70.6816 114.25L70.0316 118.5H68.2816ZM82.341 118.5C80.1743 118.5 78.541 117.917 77.441 116.75C76.3743 115.55 75.841 114.083 75.841 112.35V97.45H71.891L72.341 93.3H75.841V87.45L81.041 86.95V93.3H87.091V97.45H81.041V109.7C81.041 111.233 81.1243 112.3 81.291 112.9C81.491 113.467 81.8743 113.833 82.441 114C83.0077 114.167 84.0743 114.25 85.641 114.25H86.991L86.591 118.5H82.341ZM102.786 118.5C99.9522 118.5 97.5189 117.917 95.4855 116.75C93.4855 115.583 91.9689 114.017 90.9355 112.05C89.9355 110.083 89.4355 107.883 89.4355 105.45C89.4355 103.15 89.9022 101.05 90.8355 99.15C91.8022 97.2167 93.1855 95.6833 94.9855 94.55C96.8189 93.4167 98.9855 92.85 101.486 92.85C104.752 92.85 107.352 93.8167 109.286 95.75C111.219 97.65 112.186 100.2 112.186 103.4C112.186 104.267 112.086 105.2 111.886 106.2H94.7855C95.1189 108.967 96.0355 110.967 97.5355 112.2C99.0689 113.433 101.002 114.05 103.336 114.05C105.969 114.05 108.386 113.483 110.586 112.35L111.086 116.6C108.419 117.867 105.652 118.5 102.786 118.5ZM106.836 102.65C106.836 101.083 106.386 99.8 105.486 98.8C104.586 97.8 103.236 97.3 101.436 97.3C98.0689 97.3 95.9522 99.0833 95.0855 102.65H106.836ZM116.57 93.3H121.17L121.52 96.75C123.72 94.1167 126.02 92.8 128.42 92.8C128.787 92.8 129.17 92.8333 129.57 92.9L129.12 98.35C128.587 98.2167 127.987 98.15 127.32 98.15C126.187 98.15 125.12 98.4167 124.12 98.95C123.12 99.4833 122.404 100.1 121.97 100.8V118H116.57V93.3Z" fill="white"/>
</svg>
